<svg xmlns="http://www.w3.org/2000/svg" viewBox="0 0 17.01 17.01" xmlns:xlink='http://www.w3.org/1999/xlink' id='svg'><path d="M8.5 0a8.5 8.5 0 00-3.41 16.29 7.76 7.76 0 01.15-1.95c.16-.69 1.09-4.63 1.09-4.63a3.33 3.33 0 01-.27-1.35c0-1.26.73-2.2 1.64-2.2a1.14 1.14 0 011.15 1.28 18.76 18.76 0 01-.75 3 1.31 1.31 0 001.34 1.64c1.61 0 2.7-2.07 2.7-4.52 0-1.86-1.26-3.26-3.54-3.26a4 4 0 00-4.19 4.08A2.46 2.46 0 005 10.05a.41.41 0 01.12.48l-.17.68a.29.29 0 01-.42.21 3.27 3.27 0 01-1.78-3.25c0-2.41 2-5.31 6.08-5.31a5.08 5.08 0 015.38 4.87c0 3.34-1.85 5.83-4.58 5.83a2.44 2.44 0 01-2.08-1.06L7 14.84a6.94 6.94 0 01-.86 1.82A8.78 8.78 0 008.5 17a8.51 8.51 0 100-17" fill="#fff"/></svg>