<svg xmlns="http://www.w3.org/2000/svg" viewBox="0 0 17.04 13.85" xmlns:xlink='http://www.w3.org/1999/xlink' id='svg'><path d="M17 1.64a7.12 7.12 0 01-2 .55A3.52 3.52 0 0016.57.26a6.94 6.94 0 01-2.22.84 3.5 3.5 0 00-6 2.4 3.42 3.42 0 00.09.79A10 10 0 011.19.64a3.48 3.48 0 001.08 4.67 3.6 3.6 0 01-1.59-.44 3.5 3.5 0 002.81 3.47 3.46 3.46 0 01-.92.12 3.52 3.52 0 01-.66-.06 3.5 3.5 0 003.26 2.43 7 7 0 01-4.34 1.49 7.56 7.56 0 01-.83 0 9.91 9.91 0 005.36 1.57A9.88 9.88 0 0015.3 3.9v-.45A7 7 0 0017 1.64" fill="#fff"/></svg>